<?xml version="1.0" encoding="utf-8"?><svg xmlns="http://www.w3.org/2000/svg" xmlns:xlink="http://www.w3.org/1999/xlink"><defs><svg viewBox="0 0 576 512" id="icon-abacus" xmlns="http://www.w3.org/2000/svg"><path d="M560 0c-8.84 0-16 7.16-16 16v64h-64V64c0-17.67-14.33-32-32-32h-32c-17.67 0-32 14.33-32 32v16h-96V64c0-17.67-14.33-32-32-32h-32c-17.67 0-32 14.33-32 32v16h-32V64c0-17.67-14.33-32-32-32H96c-17.67 0-32 14.33-32 32v16H32V16c0-8.84-7.16-16-16-16S0 7.16 0 16v488c0 4.42 3.58 8 8 8h16c4.42 0 8-3.58 8-8v-72h32v16c0 17.67 14.33 32 32 32h32c17.67 0 32-14.33 32-32v-16h32v16c0 17.67 14.33 32 32 32h32c17.67 0 32-14.33 32-32v-16h96v16c0 17.67 14.33 32 32 32h32c17.67 0 32-14.33 32-32v-16h64v72c0 4.42 3.58 8 8 8h16c4.42 0 8-3.58 8-8V16c0-8.84-7.16-16-16-16zM416 64h32v64h-32V64zm-192 0h32v64h-32V64zM96 64h32v64H96V64zm32 384H96v-64h32v64zm128 0h-32v-64h32v64zm192 0h-32v-64h32v64zm96-48h-64v-16c0-17.67-14.33-32-32-32h-32c-17.67 0-32 14.33-32 32v16h-96v-16c0-17.67-14.33-32-32-32h-32c-17.67 0-32 14.33-32 32v16h-32v-16c0-17.67-14.33-32-32-32H96c-17.67 0-32 14.33-32 32v16H32V272h32v16c0 17.67 14.33 32 32 32h32c17.67 0 32-14.33 32-32v-16h32v16c0 17.67 14.33 32 32 32h32c17.67 0 32-14.33 32-32v-16h32v16c0 17.67 14.33 32 32 32h32c17.67 0 32-14.33 32-32v-16h128v128zM96 288v-64h32v64H96zm128 0v-64h32v64h-32zm128 0v-64h32v64h-32zm192-48H416v-16c0-17.67-14.33-32-32-32h-32c-17.67 0-32 14.33-32 32v16h-32v-16c0-17.67-14.33-32-32-32h-32c-17.67 0-32 14.33-32 32v16h-32v-16c0-17.67-14.33-32-32-32H96c-17.67 0-32 14.33-32 32v16H32V112h32v16c0 17.67 14.33 32 32 32h32c17.67 0 32-14.33 32-32v-16h32v16c0 17.67 14.33 32 32 32h32c17.67 0 32-14.33 32-32v-16h96v16c0 17.67 14.33 32 32 32h32c17.67 0 32-14.33 32-32v-16h64v128z"/></svg><svg viewBox="0 0 448 512" id="icon-acorn" xmlns="http://www.w3.org/2000/svg"><path d="M352 64H241.12c3.32-14.4 9.75-27.88 19.46-39.28 2.77-3.25 2.81-7.98-.21-11L249.04 2.39c-3.22-3.22-8.62-3.23-11.62.2-15.38 17.51-25.27 38.67-29.1 61.41H96c-53.02 0-96 42.98-96 96v32c0 17.67 14.33 32 32 32v32c0 98.06 55.4 187.7 143.11 231.55L224 512l48.89-24.45C360.6 443.7 416 354.06 416 256v-32c17.67 0 32-14.33 32-32v-32c0-53.02-42.98-96-96-96zm32 192c0 86.49-48.06 164.25-125.42 202.93L224 476.22l-34.58-17.29C112.06 420.25 64 342.49 64 256v-32h320v32zm32-64H32v-32c0-35.29 28.71-64 64-64h256c35.29 0 64 28.71 64 64v32z"/></svg><svg viewBox="0 0 512 512" id="icon-ad" xmlns="http://www.w3.org/2000/svg"><path d="M464 64H48C21.5 64 0 85.5 0 112v288c0 26.5 21.5 48 48 48h416c26.5 0 48-21.5 48-48V112c0-26.5-21.5-48-48-48zm16 336c0 8.82-7.18 16-16 16H48c-8.82 0-16-7.18-16-16V112c0-8.82 7.18-16 16-16h416c8.82 0 16 7.18 16 16v288zm-72-240h-16c-4.42 0-8 3.58-8 8v64.88c-9.45-5.5-20.28-8.88-32-8.88-35.35 0-64 28.65-64 64s28.65 64 64 64c11.72 0 22.55-3.38 32-8.88v.88c0 4.42 3.58 8 8 8h16c4.42 0 8-3.58 8-8V168c0-4.42-3.58-8-8-8zm-56 160c-17.64 0-32-14.36-32-32s14.36-32 32-32 32 14.36 32 32-14.36 32-32 32zM196.97 165.13a8.007 8.007 0 0 0-7.47-5.13h-27.01c-3.31 0-6.28 2.04-7.47 5.13l-67.69 176C85.31 346.37 89.18 352 94.8 352h17.15c3.31 0 6.28-2.04 7.47-5.13L142.07 288h67.86l22.64 58.87a8.007 8.007 0 0 0 7.47 5.13h17.15c5.62 0 9.48-5.63 7.47-10.87l-67.69-176zM154.37 256L176 199.77 197.63 256h-43.26z"/></svg><svg viewBox="0 0 448 512" id="icon-address-book" xmlns="http://www.w3.org/2000/svg"><path d="M436 160c6.6 0 12-5.4 12-12v-40c0-6.6-5.4-12-12-12h-20V64c0-35.3-28.7-64-64-64H64C28.7 0 0 28.7 0 64v384c0 35.3 28.7 64 64 64h288c35.3 0 64-28.7 64-64v-32h20c6.6 0 12-5.4 12-12v-40c0-6.6-5.4-12-12-12h-20v-64h20c6.6 0 12-5.4 12-12v-40c0-6.6-5.4-12-12-12h-20v-64h20zm-52 288c0 17.6-14.4 32-32 32H64c-17.6 0-32-14.4-32-32V64c0-17.6 14.4-32 32-32h288c17.6 0 32 14.4 32 32v384zM208 272c44.2 0 80-35.8 80-80s-35.8-80-80-80-80 35.8-80 80 35.8 80 80 80zm0-128c26.5 0 48 21.5 48 48s-21.5 48-48 48-48-21.5-48-48 21.5-48 48-48zm46.8 144c-19.5 0-24.4 7-46.8 7s-27.3-7-46.8-7c-21.2 0-41.8 9.4-53.8 27.4C100.2 326.1 96 339 96 352.9V392c0 4.4 3.6 8 8 8h16c4.4 0 8-3.6 8-8v-39.1c0-7 2.1-13.8 6-19.6 5.6-8.3 15.8-13.2 27.3-13.2 12.4 0 20.8 7 46.8 7 25.9 0 34.3-7 46.8-7 11.5 0 21.7 5 27.3 13.2 3.9 5.8 6 12.6 6 19.6V392c0 4.4 3.6 8 8 8h16c4.4 0 8-3.6 8-8v-39.1c0-13.9-4.2-26.8-11.4-37.5-12.3-18-32.9-27.4-54-27.4z"/></svg><svg viewBox="0 0 576 512" id="icon-address-card" xmlns="http://www.w3.org/2000/svg"><path d="M512 32H64C28.7 32 0 60.7 0 96v320c0 35.3 28.7 64 64 64h448c35.3 0 64-28.7 64-64V96c0-35.3-28.7-64-64-64zm32 384c0 17.6-14.4 32-32 32H64c-17.6 0-32-14.4-32-32V96c0-17.6 14.4-32 32-32h448c17.6 0 32 14.4 32 32v320zm-72-128H360c-4.4 0-8 3.6-8 8v16c0 4.4 3.6 8 8 8h112c4.4 0 8-3.6 8-8v-16c0-4.4-3.6-8-8-8zm0-64H360c-4.4 0-8 3.6-8 8v16c0 4.4 3.6 8 8 8h112c4.4 0 8-3.6 8-8v-16c0-4.4-3.6-8-8-8zm0-64H360c-4.4 0-8 3.6-8 8v16c0 4.4 3.6 8 8 8h112c4.4 0 8-3.6 8-8v-16c0-4.4-3.6-8-8-8zM208 288c44.2 0 80-35.8 80-80s-35.8-80-80-80-80 35.8-80 80 35.8 80 80 80zm0-128c26.5 0 48 21.5 48 48s-21.5 48-48 48-48-21.5-48-48 21.5-48 48-48zm46.8 144c-19.5 0-24.4 7-46.8 7s-27.3-7-46.8-7c-21.2 0-41.8 9.4-53.8 27.4C100.2 342.1 96 355 96 368.9V392c0 4.4 3.6 8 8 8h16c4.4 0 8-3.6 8-8v-23.1c0-7 2.1-13.8 6-19.6 5.6-8.3 15.8-13.2 27.3-13.2 12.4 0 20.8 7 46.8 7 25.9 0 34.3-7 46.8-7 11.5 0 21.7 5 27.3 13.2 3.9 5.8 6 12.6 6 19.6V392c0 4.4 3.6 8 8 8h16c4.4 0 8-3.6 8-8v-23.1c0-13.9-4.2-26.8-11.4-37.5-12.3-18-32.9-27.4-54-27.4z"/></svg><svg viewBox="0 0 512 512" id="icon-adjust" xmlns="http://www.w3.org/2000/svg"><path d="M256 40c119.945 0 216 97.337 216 216 0 119.945-97.337 216-216 216-119.945 0-216-97.337-216-216 0-119.945 97.337-216 216-216m0-32C119.033 8 8 119.033 8 256s111.033 248 248 248 248-111.033 248-248S392.967 8 256 8zm-32 124.01v247.98c-53.855-13.8-96-63.001-96-123.99 0-60.99 42.145-110.19 96-123.99M256 96c-88.366 0-160 71.634-160 160s71.634 160 160 160V96z"/></svg><svg viewBox="0 0 416 512" id="icon-air-freshener" xmlns="http://www.w3.org/2000/svg"><path d="M406.45 326.27l-68-70.28h11.47c13.63 0 25.94-7.8 31.31-19.86 5.19-11.61 3.06-24.78-5.53-34.34L252.87 64.64C254.8 59.44 256 53.88 256 48c0-26.51-21.49-48-48-48s-48 21.49-48 48c0 5.88 1.21 11.44 3.14 16.64L40.3 201.77c-8.59 9.58-10.72 22.75-5.53 34.36 5.38 12.06 17.69 19.86 31.31 19.86h11.47l-68 70.28c-9.47 9.8-12.13 23.47-6.94 35.67 5.66 13.39 19.44 22.05 35.06 22.05H184v32H63.99c-8.84 0-16 7.16-16 16V496c0 8.84 7.16 16 16 16h288.02c8.84 0 16-7.16 16-16v-64.02c0-8.84-7.16-16-16-16H232v-32h146.32c15.63 0 29.41-8.66 35.06-22.05 5.2-12.2 2.54-25.87-6.93-35.66zM208 32c8.82 0 16 7.18 16 16s-7.18 16-16 16-16-7.18-16-16 7.18-16 16-16zm128.01 415.98V480H79.99v-32.02h256.02zm42.31-96H37.68c-4.13 0-5.66-2.17-5.13-3.47l107.56-111.15c4.89-5.05 1.35-13.5-5.67-13.56l-70.32-.68 119.85-133.8C191.06 93.46 199.2 96 208 96c8.37 0 16.13-2.33 22.98-6.1l118.93 134.09H281.8c-7.06 0-10.66 8.48-5.75 13.56l107.96 111.69c-.03.57-1.56 2.74-5.69 2.74z"/></svg><svg viewBox="0 0 512 512" id="icon-alarm-clock" xmlns="http://www.w3.org/2000/svg"><path d="M32 112a80.09 80.09 0 0 1 80-80 79.23 79.23 0 0 1 50 18 253.22 253.22 0 0 1 34.44-10.8C175.89 15.42 145.86 0 112 0A112.14 112.14 0 0 0 0 112c0 25.86 9.17 49.41 24 68.39a255.93 255.93 0 0 1 17.4-31.64A78.94 78.94 0 0 1 32 112zM400 0c-33.86 0-63.89 15.42-84.44 39.25A253.22 253.22 0 0 1 350 50.05a79.23 79.23 0 0 1 50-18 80.09 80.09 0 0 1 80 80 78.94 78.94 0 0 1-9.36 36.75A255.93 255.93 0 0 1 488 180.39c14.79-19 24-42.53 24-68.39A112.14 112.14 0 0 0 400 0zM256 64C132.29 64 32 164.29 32 288a222.89 222.89 0 0 0 54.84 146.54L34.34 487a8 8 0 0 0 0 11.32l11.31 11.31a8 8 0 0 0 11.32 0l52.49-52.5a223.21 223.21 0 0 0 293.08 0L455 509.66a8 8 0 0 0 11.32 0l11.31-11.31a8 8 0 0 0 0-11.32l-52.5-52.49A222.89 222.89 0 0 0 480 288c0-123.71-100.29-224-224-224zm0 416c-105.87 0-192-86.13-192-192S150.13 96 256 96s192 86.13 192 192-86.13 192-192 192zm14.38-183.69V168a8 8 0 0 0-8-8h-16a8 8 0 0 0-8 8v136a16 16 0 0 0 6 12.48l73.75 59a8 8 0 0 0 11.25-1.25l10-12.5a8 8 0 0 0-1.25-11.25z"/></svg><svg viewBox="0 0 640 512" id="icon-alicorn" xmlns="http://www.w3.org/2000/svg"><path d="M631.98 64h-96.92l-.24-.3c5.39-9.45 8.38-20.32 8.38-31.7 0-17.67-14.33-32-32-32H400c-69.18 0-125.38 55.26-127.59 123.92-35.69-9.21-63.11-34.71-81.51-76.61-4-9.16-13.06-15.16-23.03-15.31-10.53.2-18.84 5.36-23.13 14.39C133.63 69.94 128 95.08 128 121.09c0 75.38 56.56 143.6 132.87 161.9 4.42 1.06 8.86-1.96 9.7-6.43l2.97-15.7c.8-4.22-1.93-8.17-6.1-9.2C205.69 236.47 160 181.6 160 121.09c0-16.31 2.72-32.19 8.06-47.38C197.38 130.23 244.1 160 303.94 160l.06-32c0-53.02 42.98-96 96-96h111.2c0 13.29-8.1 24.66-19.63 29.5l20.39 24.78.05 93.88a16 16 0 0 1-10.83 15.15l-25.52 8.71c-9.33 3.19-16.14-2.76-18.48-6.27L432 160l-48-16v100.21c0 26.67-12.65 50.17-32 65.6V480h-64V318.69l-104.43-23.21-32.12 89.47L175.53 480H118l-21.13-87.86a31.698 31.698 0 0 1 .37-16.18l27.63-93.41C107.46 270.37 96 250.24 96 227.37c0-15.82 5.68-30.18 14.82-41.68-4.94-10.84-8.98-22.04-11.4-33.73-8.09 6.94-15.19 15.02-20.76 24.18C35.11 176.87 0 212.27 0 256v56c0 4.42 3.58 8 8 8h16c4.42 0 8-3.58 8-8v-56c0-21.5 14.23-39.48 33.72-45.59-.96 5.54-1.71 11.15-1.71 16.96 0 24.2 8.9 47.33 24.53 65.24l-21.97 74.27c-3.12 10.77-3.38 22.03-.8 32.74l21.13 87.86C90.34 501.86 103.21 512 118 512h57.53c20.95 0 36.12-19.75 31.02-39.86l-21.68-85.57 19.29-53.73L256 344.36V480c0 17.67 14.33 32 32 32h64c17.67 0 32-14.33 32-32V323.8c20.5-21.5 32-49.75 32-79.59v-50.52l14.55 21.82c19.11 28.67 49.98 20.67 55.45 18.8l25.52-8.71c19.44-6.63 32.5-24.89 32.49-45.44l-.03-64.83 92.45-36.66c6.58-4.4 3.47-14.67-4.45-14.67zM464.01 96c0-8.84-7.16-16-16-16s-16 7.16-16 16 7.16 16 16 16c8.83 0 16-7.16 16-16z"/></svg><svg viewBox="0 0 640 512" id="icon-american-sign-language-interpreting" xmlns="http://www.w3.org/2000/svg"><path d="M635.9 213.3c0-.1-41.3-83.1-41.3-83.1-9.6-19.3-33.6-28.5-54.4-18l-55.3 28-79-7.4c-5.1-.5-32.5-.7-59.3 15.8-7.5-14.4-18.5-20.5-32.9-26.1 17-32.5-6.9-77-51.8-70.8C263.5 24.2 241.8 0 213.4 0c-11.3 0-22.3 4-31.1 11.2-45 37.2-74.1 89.9-81.7 147.7L68 218.1l-48.1 27.6c-18.2 10.8-25 33.9-15.8 53.1 0 .1 41.3 83.1 41.3 83.1 9.6 19.3 33.6 28.5 54.4 18l55.3-28c81.1 7.5 81.2 7.5 82.7 7.5 19.9 0 39.1-5.7 55.6-15.9 4.7 9.1 12.2 16.4 21.5 21.1 2.6 1.3 7 3.3 11.3 5-16.9 32.3 6.9 77 51.8 70.8-1.6 27.8 20.7 51.5 48.6 51.5 11.3 0 22.4-4 31.1-11.3 45-37.3 74-89.9 81.7-147.6l32.6-59.2s48-27.6 48.1-27.6c18.2-10.7 25-33.8 15.8-52.9zm-339.6-26.9c-20.4-10.3-44.5-11.7-66.1-4-8.4 3-6.3 15.5 2.7 15.5 33.4 0 58.9 15.1 71.9 42.6 9.2 19.4-19.8 34.9-30 14.3-7-14.4-21.2-23.4-37-23.4-22.6 0-40.9 18.5-40.9 41.1 0 25.4 21.2 41.1 40.9 41.1 15.8 0 30-9 37-23.4 0 0 0-.1.1-.1 9.4-20.2 39.4-5.4 30 14.4-12.3 25.9-38.4 42.7-66.7 42.8-4.7-.4-64-5.9-87-8-1.5-.1-3 .1-4.3.8l-61.4 31.1c-4.1 2.1-9.2.5-11.3-3.6v-.1l-41.1-82.8c-2-4.2-.6-9.3 3.3-11.6l53.7-30.8c1.3-.7 2.3-1.8 3-3.1l38-69.1c.5-.9.8-1.9.9-3 5.7-51.7 30.9-98.3 70.9-131.4 16.6-13.9 38.7 11.3 21 26.1-12.5 10.7-23.1 22.4-31.5 34.8-4.9 7.3 3.9 16.1 11.1 11.1 19.9-13.6 41.8-22 65.2-24.8 8.6-1.1 17.1 4.3 18.5 14.6 1.2 9.3-5.1 17.7-14.4 18.7-15.4 1.9-30.2 7-44 15.3-7.7 4.6-3 16.6 5.8 14.7 24.3-5.4 52.8-1.7 76.2 9.7 20.6 10.4 4.6 39.9-14.5 30.5zM248 272.6c-2 3.3-3.6 9.1-10.2 9.1-2.8 0-8.9-2.3-8.9-9.1 0-5.1 3.9-9.1 8.9-9.1 6.6-.1 8.1 5.6 10.2 9.1zm355.8-33.9l-53.7 30.8c-1.3.7-2.3 1.8-3 3.1l-38 69.1c-.5.9-.8 1.9-.9 3-5.7 51.7-30.9 98.3-71 131.5-16.5 13.8-38.7-11.4-21-26.1 12.5-10.7 23.1-22.3 31.5-34.8 5-7.4-4-16-11.1-11.1-19.9 13.6-41.8 22-65.1 24.8-21.6 2.7-26.2-30.8-4.2-33.3 15.4-1.9 30.2-7 44-15.3 7.7-4.6 3-16.6-5.8-14.7-24.3 5.4-52.8 1.7-76.2-9.7-20.8-10.5-4.5-39.8 14.4-30.5 20.4 10.3 44.5 11.7 66.2 4 8.4-3 6.3-15.5-2.7-15.5-33.4 0-58.9-15.1-71.9-42.6-9.4-19.8 20.5-34.6 30-14.4l.1.1c7 14.4 21.2 23.4 37 23.4 22.6 0 40.9-18.5 40.9-41.1 0-25.4-21.2-41.1-40.9-41.1-15.8 0-30 9-37 23.4l-.1.1c-9.4 20.2-39.4 5.5-30-14.4 12.5-26.3 38.6-42.7 68.2-42.8l85.5 8c1.5.1 3-.1 4.4-.8l61.4-31.1c4.1-2.1 9.2-.5 11.3 3.6v.1l41.1 82.8c1.9 4.2.5 9.2-3.4 11.5zm-211.8.7c1.9-3.3 3.5-9.1 10.2-9.1 2.8 0 8.9 2.3 8.9 9.1 0 5.1-3.9 9.1-8.9 9.1-6.6.1-8.1-5.6-10.2-9.1z"/></svg><svg viewBox="0 0 576 512" id="icon-angel" xmlns="http://www.w3.org/2000/svg"><path d="M176.7 137.3c.7-11.4 2.9-22.4 6.8-32.6-15-8.6-23.5-17.8-23.5-24.7 0-16.9 48.6-48 128-48s128 31.1 128 48c0 6.9-8.5 16.1-23.5 24.7 3.9 10.3 6.1 21.2 6.8 32.6 30-14.5 48.7-34.8 48.7-57.3 0-44.2-71.6-80-160-80S128 35.8 128 80c0 22.5 18.7 42.8 48.7 57.3zm395.8 327.3L534.3 386c-7.6-15.7-7.6-34.4 0-50.1 16.7-34.2 25.6-36.5 25.6-71.8 0-46.9-43.2-88-92.4-88-23 0-44.5 9.2-60.7 25.7l-67.5 68.1C324 261 306.4 256 288 256s-35.9 5-51.3 13.8l-67.5-68.1c-16.1-16.5-37.7-25.7-60.7-25.7-49.2 0-92.4 41.1-92.4 88 0 35.4 9 37.9 25.6 71.8 7.6 15.7 7.6 34.4 0 50.1L3.6 464.6C-8.1 488.5 11 512 32.6 512h510.8c22.2 0 40.5-24.1 29.1-47.4zM32.6 480l37.9-80.1c11.9-24.5 11.9-53.6 0-78.1C52.6 285 48.2 289.9 48.2 264c0-29.3 28.8-56 60.4-56 14.2 0 27.7 5.7 37.8 16.2l65.1 65.7c-6.3 6.9-11.7 14.8-16.1 23.4L112.1 480H32.6zm115.3 0L224 327.6c12.2-24.4 36.7-39.6 64-39.6 27.3 0 51.8 15.2 64 39.6L428.2 480H147.9zm316 0l-83.3-166.8c-4.3-8.6-9.8-16.4-16.1-23.4l65.1-65.7c10.1-10.4 23.6-16.2 37.8-16.2 31.6 0 60.4 26.7 60.4 56 0 26-4.5 21-22.4 57.8-11.9 24.5-11.9 53.6 0 78.1l37.9 80.1h-79.4zM208 144c0 44.2 35.8 80 80 80s80-35.8 80-80-35.8-80-80-80-80 35.8-80 80zm128 0c0 26.5-21.5 48-48 48s-48-21.5-48-48 21.5-48 48-48 48 21.5 48 48z"/></svg><svg version="1.1" xmlns:a="http://ns.adobe.com/AdobeSVGViewerExtensions/3.0/" x="0px" y="0px" viewBox="0 0 40.6 32" style="enable-background:new 0 0 40.6 32;" xml:space="preserve" id="icon-new" xmlns="http://www.w3.org/2000/svg">
<style type="text/css">.lst0{fill:#e63445}</style>
<defs>
</defs>
<path class="lst0" d="M15.8,18.9L15.8,18.9c-0.2,0-0.3-0.1-0.4-0.2l0,0L15,18.2c-0.7-0.9-1.6-2-2.4-3.1c-2-2.8-4.5-6.9-3.1-10.7
	C9.9,3,10.8,1.8,12,1.1l0,0c1-0.7,2.3-1,3.6-1c0,0,0.1,0,0.1,0h0c0,0,0.1,0,0.2,0c1.3,0,2.6,0.4,3.6,1l0,0c1.2,0.8,2.1,1.9,2.6,3.3
	l0,0c0.3,0.7,0.4,1.5,0.4,2.4c0,0.5,0,1-0.1,1.4l0,0c-0.3,1.4-0.7,2.6-1.4,3.8l0-0.1c-1.2,2.4-3,4.6-4.5,6.4l-0.4,0.5
	C16,18.9,15.9,18.9,15.8,18.9L15.8,18.9L15.8,18.9L15.8,18.9z M15.6,0.9c0,0-0.1,0-0.1,0c-2.4,0-4.5,1.6-5.2,3.8l0,0
	c-1.2,3.4,1.1,7.3,3,9.9c0.8,1.1,1.6,2.2,2.4,3.1l0.1,0.1l0.1-0.1c1.4-1.8,3.2-4,4.4-6.3c1.4-2.6,1.7-4.8,1-6.7l0,0
	c-0.7-2.2-2.8-3.8-5.2-3.8c0,0-0.1,0-0.1,0L15.6,0.9L15.6,0.9z"/>
<path class="lst0" d="M15.8,10.5c-2.2,0-4-1.8-4-4s1.8-4,4-4c2.2,0,4,1.8,4,4l0,0C19.7,8.7,18,10.5,15.8,10.5L15.8,10.5L15.8,10.5z
	 M15.8,3.4c-1.7,0-3.1,1.4-3.1,3.1s1.4,3.1,3.1,3.1s3.1-1.4,3.1-3.1l0,0C18.8,4.8,17.5,3.4,15.8,3.4L15.8,3.4
	C15.8,3.4,15.8,3.4,15.8,3.4z"/>
<path d="M40.5,21.2c-0.2-0.4-0.1-1.3-0.8-1.2c-0.2,0-0.3-0.3-0.5-0.2c-0.5-1.1-0.2-1.6-0.6-1.8c-0.3-0.1-0.5,0.2-0.6,0.1
	c-0.2-0.1-0.4-0.2-0.6-0.2c-0.1,0-0.2,0-0.4,0.1l0,0c-0.1-0.2-0.3-0.3-0.5-0.3h0c-0.2-0.1-0.4-0.2-0.6-0.3l0,0
	c-0.6-0.7-1.2-0.4-1.2,0.1c0,0.1-0.1,0.2-0.2,0.2h0c-0.1,0-0.3-0.2-0.7-0.8c-0.1-0.2-0.3-0.4-0.6-0.4l0,0c1.3-0.6,0.3-2.6-0.5-1.5
	c-0.1,0.2-0.5,0-1,0.2c-0.1-0.1-0.2-0.2-0.4-0.2h0c-0.2-0.3-0.4-0.1-0.8-0.4c-0.4-0.3-0.8-0.5-1.2-0.6l0,0c-0.7-0.2-1.1-0.4-1.3,0.1
	c-0.1,0.3,0.1,0.5,0.2,0.7c0.3,0.6,0.4,0.7,0.6,0.7c0,0,0,0.1,0,0.1s0,0.1,0,0.1v0c-1.2,0.2-0.9,0.7-1.5,1.2
	c-0.2-0.1-0.3-0.3-0.3-0.4l0,0c0-0.6-1-1.3-1.3-1.7c-0.1-0.2-0.3-0.3-0.5-0.3c-0.1,0-0.1,0-0.2,0h0c-0.1,0-0.2-0.2-0.2-0.2
	c0.5-0.4,1.1-0.5,1-1c1.1-0.4-0.9-2.1-1.5-1.3c-0.4-0.2-0.6-0.2-0.8,0.1c-0.1-0.4-0.4-0.4-0.8-0.4c-0.1,0.2-0.2,0.4-0.3,0.6
	c0.1,0,0.2,0.1,0.3,0.1c0,0,0.1,0,0.1,0h0c0,0,0,0,0,0c0.1,0.7,0.5,1,1.1,0.2c0.1-0.1,0-0.1,0.1,0c0.5,0.3,0.7,0.2,0.9-0.1
	c0.2,0.1,0.4,0.2,0.5,0.3l0,0C25.1,12.7,25,12.9,25,13c0,0,0,0,0,0v0c-0.3,0.1-0.5,0.3-0.8,0.5l0,0c-0.6,0.4-0.5,0.7,0,1.1
	c0.5,0.5,0.7,0.3,0.8,0.4c0.3,0.5,1.1,1,1.1,1.3c0,0.6,1,2.1,2.1,0.2c0.2-0.3,0.7-0.2,0.6-0.3c0.5,0.2,1-0.3,0.6-0.7
	c0,0,0-0.1,0-0.1c0-0.3-0.2-0.5-0.4-0.6h0c-0.1-0.1-0.1-0.2-0.2-0.3l0,0c0.5,0.1,0.9,0.3,1.3,0.6l0,0c0.2,0.2,0.4,0.3,0.6,0.4l0,0
	c0,0.5,0.4,0.5,0.6,0.4c0.1,0.1,0.2,0.1,0.3,0.1c0.1,0,0.2,0,0.3-0.1h0c0.4-0.2,0.8,0,1.2-0.3c0.1,0.5-0.8,0.2-0.9,0.7
	c-0.1,0.3,0.5,0.8,0.8,0.9c0.2,0.1,0.9,1.4,1.6,1.1c0.7-0.3,0.6-0.7,0.7-0.5c0.3,0.2,0.6,0.4,1,0.5l0,0c0.1,0,0.1,0.1,0.1,0.1l0,0
	c0.4,0.5,0.7,0,1.1,0.2c0.1,0.1,0.3,0.2,0.5,0.2c0,0,0.1,0,0.1,0h0c0,0.5,0.5,2,1,1.8c0.1,0.1,0.3,0.2,0.5,0.2h0
	c0,0.3,0.1,0.6,0.3,0.8l0,0c-0.2,0.2-0.5,0.3-0.8,0.3c0,0,0,0,0,0h0c-1.1-0.2-1,1.4-2.1,1.8c-0.9,0.2-0.9,0.4-1.1,1.5
	c-0.2,0.6-0.3,1.2-0.8,1.4c-0.4,0.2-0.6,0.6-1.2,0.9s-0.9,1-1.2,0.9c-0.1-0.1-0.2-0.1-0.4-0.1c-0.2,0-0.3,0.1-0.5,0.1l0,0l-0.1,0.1
	c-0.2,0-0.6-0.5-1.3-0.3c-0.6,0.3-1.1,0.8-1.3,1.5l0,0c-0.3-0.4-0.6,0-1.3-0.2c0-0.3-0.3-0.5-0.6-0.5l0,0c-0.2-0.1-0.4-0.1-0.6-0.1
	c-0.4,0-0.7,0.2-1,0.5l0,0c-0.1,0.2-0.1,0.2-0.9,0.1c-1,0-1.3-0.2-1.4-0.4c-0.2-0.3-0.6-0.4-0.8-0.5c-0.8-0.5-0.1,0.4-2.3-0.7
	c-0.6-0.3-0.8-0.6-1.4-0.5c-0.3,0.1-0.3,0.2-0.4,0.3c-0.2-0.5-0.7-0.4-0.8-0.4c-0.1-0.1-0.2-0.1-0.4-0.1c-0.1,0-0.1,0-0.2,0h0
	c-0.3,0.1-0.4,0.5-0.5,1.6c0,0.7,0,0.5-0.3,0.5c-0.7,0-0.6,0.4-0.8,0.7c-0.2,0.2-0.4,0.5-0.4,0.9v0c-0.1-0.1-0.2-0.2-0.3-0.2
	c-0.1,0-0.2,0-0.3,0.1l0,0c-0.4-0.2-0.6-0.5-1,0s-0.3,0.3-0.5,0.5c-0.5-0.3-1.3-0.2-1.4-0.5c-0.1-0.4-0.4-0.8-0.7-1l0,0
	c-1-0.5-0.5-0.5-0.9-0.9c-0.2-0.2-0.4-0.4-0.6-0.5l0,0c-0.1-0.1-0.7-1.2-1.4-0.7C8.1,27.4,8,27.3,8,27.2v0c-0.1-0.4-0.7-1.3-1.2-1.3
	c-0.2,0-0.1,0-0.2,0c-0.2-0.5-0.5-0.5-0.5-0.7C6.1,25,6,24.8,5.8,24.7l0,0c0-0.1-0.1-0.2-0.2-0.3l0,0c-0.5-0.8-1.1-0.5-1.4-0.6
	c-0.2-0.5-0.5-0.6-0.7-1.1c-0.1-0.2-0.2-0.4-0.3-0.6l0,0c-0.5-1.1-0.4-1.3-0.9-1.7c-0.4-0.3,1.2-1.6,0.3-2.1c0-0.7-1.2-1-1.3-1.2
	c-0.2-0.5-0.3-0.3-0.3-0.4c0.1,0.1,0.2,0.1,0.3,0.1c0.2,0,0.4-0.2,0.4-0.4l0,0C2,16.3,2,16,2.2,15.8l0,0c0.2-0.4,0.3-0.4,0.3-0.4
	c0.3-0.1,0.5-0.3,0.5-0.6v0c0.2,0,1,0,1.2-0.2c0.1-0.1,0.2-0.1,0.3-0.1c0.1,0,0.2,0,0.2,0.1h0c0.1,0.1,0.3,0.2,0.5,0.2
	c0.3,0,0.6-0.2,0.7-0.5l0,0c0.6-0.6,0.9-0.2,1.2-0.9c0.1-0.2,0.3-0.2,0.6-0.5c0.4,0.5,1-0.1,1.2-0.6c-0.1-0.3-0.3-0.5-0.4-0.8
	c-0.3,0.2-0.1,0.4-0.4,0.8c-0.3-0.2-0.6-0.1-0.9,0.1c-0.2,0.1-0.6,0.3-0.8,0.7c-0.1,0.2,0,0.1-0.4,0.2c-0.7,0.2-0.6,0.6-1,0.8
	c-0.2-0.1-0.4-0.2-0.7-0.2S4,13.9,3.8,14.1l0,0c-0.3,0.2-1.5-0.2-1.5,0.7c-0.3,0-0.6,0.6-0.7,0.8c-0.1,0.3-0.1,0.2-0.1,0.1
	c-0.3-0.3-0.3-0.7-0.8-0.7s-0.4,0.5-0.5,0.6c-0.2,0.4,0.1,0.5,0.4,1c0.1,0.1-0.1,0.1-0.1,0.4s0.3,0.4,0.4,0.6
	C1,17.7,1.1,17.9,1.3,18l0,0c1.3,0.7,0.5,0.5,0.9,1c0.2,0.2,0.3,0-0.1,0.6c-0.1,0.1-0.1,0.2-0.2,0.4v0c-0.1,0.3-0.3,0.3-0.3,0.6
	c0,0.4,0.6,0.5,0.7,1c0,0.1,0.6,1.4,0.7,1.5c0.2,0.6,0.6,0.9,0.7,1.2c0.1,0.5,0.9,0.4,1.1,0.4c0.2,0.1,0.3,0.2,0.4,0.3v0
	c0,0.1,0.1,0.2,0.2,0.4l0,0c0.1,0.1,0.2,0.2,0.2,0.3l0,0C5.7,25.9,6,26,6.1,26.2c0.2,0.4,0.3,0.5,0.7,0.5c0.2,0.2,0.4,0.4,0.5,0.7
	l0,0c0.1,0.4,0.4,0.8,0.8,0.9l0,0c0.5,0.1,0.4-0.5,0.7,0.2c0.2,0.3,0.7,0.4,1,1c0.2,0.5,1,0.7,1.4,1.2c0,0.8,0.9,0.9,1.1,0.9
	c0.8,0.1,0.6,0.4,1,0.4c0.2,0,0.4-0.2,0.5-0.4c0,0,0.1,0,0.3-0.2c0.2-0.2,0.1-0.2,0.2-0.2c0.1,0.1,0.3,0.2,0.5,0.2
	c0.1,0,0.2,0,0.2,0l0,0c0.1,0.2,0.3,0.3,0.5,0.3c0,0,0.1,0,0.1,0h0c0.5-0.2,0.3-0.9,0.7-1.3c0.4-0.4,0.2-0.6,0.5-0.5
	c0.1,0.1,0.2,0.2,0.4,0.2c0,0,0.1,0,0.1,0h0c0.4-0.1,0.4-0.5,0.4-1.4c0-1.1,0-0.8,0.4-0.8c0.2,0.7,1,0.4,1.2,0.1c0,0,0,0,0,0
	c0.1,0,0.1,0,0.2,0.1h0c0.5,0.3,1.1,0.6,1.8,0.9l0.1,0c0.6,0.3,0.9,0,1.1,0.2c0.1,0.1,0.2,0.1,0.3,0.2l0,0c0.6,0.2,0.2,0.8,2.2,0.9
	c0.9,0,1.1,0,1.4-0.4s0.6-0.1,0.9-0.1c0.1,0.6,1.1,0.6,1.5,0.5c0,0.2-0.1,0.7,0.4,0.8c0.8,0.1,0.6-1.8,1.7-2.2
	c0.4-0.2,0.6,0.6,1.5,0.2c0.1,0,0.2-0.1,0.2-0.1c0.7,0.4,1.4-0.4,1.7-0.7c0.4-0.3,0.7-0.5,1.1-0.8l0,0c0.3-0.3,0.4-0.2,0.7-0.5
	c0.7-0.6,0.8-2.1,1-2.4c0.1-0.1,1-0.2,1.3-0.7c0.2-0.3,0.7-1.3,0.9-1.3C39.6,22.6,41,22.1,40.5,21.2L40.5,21.2L40.5,21.2z M0.8,15.5
	C0.4,15.4,0.3,15.4,0.8,15.5C0.8,15.4,0.8,15.4,0.8,15.5L0.8,15.5L0.8,15.5z"/>
</svg></defs></svg>