<?xml version="1.0" encoding="utf-8"?><svg xmlns="http://www.w3.org/2000/svg" xmlns:xlink="http://www.w3.org/1999/xlink"><symbol viewBox="0 0 448 512" id="icon-500px" xmlns="http://www.w3.org/2000/svg"><path d="M103.3 344.3c-6.5-14.2-6.9-18.3 7.4-23.1 25.6-8 8 9.2 43.2 49.2h.3v-93.9c1.2-50.2 44-92.2 97.7-92.2 53.9 0 97.7 43.5 97.7 96.8 0 63.4-60.8 113.2-128.5 93.3-10.5-4.2-2.1-31.7 8.5-28.6 53 0 89.4-10.1 89.4-64.4 0-61-77.1-89.6-116.9-44.6-23.5 26.4-17.6 42.1-17.6 157.6 50.7 31 118.3 22 160.4-20.1 24.8-24.8 38.5-58 38.5-93 0-35.2-13.8-68.2-38.8-93.3-24.8-24.8-57.8-38.5-93.3-38.5s-68.8 13.8-93.5 38.5c-.3.3-16 16.5-21.2 23.9l-.5.6c-3.3 4.7-6.3 9.1-20.1 6.1-6.9-1.7-14.3-5.8-14.3-11.8V20c0-5 3.9-10.5 10.5-10.5h241.3c8.3 0 8.3 11.6 8.3 15.1 0 3.9 0 15.1-8.3 15.1H130.3v132.9h.3c104.2-109.8 282.8-36 282.8 108.9 0 178.1-244.8 220.3-310.1 62.8zm63.3-260.8c-.5 4.2 4.6 24.5 14.6 20.6C306 56.6 384 144.5 390.6 144.5c4.8 0 22.8-15.3 14.3-22.8-93.2-89-234.5-57-238.3-38.2zM393 414.7C283 524.6 94 475.5 61 310.5c0-12.2-30.4-7.4-28.9 3.3 24 173.4 246 256.9 381.6 121.3 6.9-7.8-12.6-28.4-20.7-20.4zM213.6 306.6c0 4 4.3 7.3 5.5 8.5 3 3 6.1 4.4 8.5 4.4 3.8 0 2.6.2 22.3-19.5 19.6 19.3 19.1 19.5 22.3 19.5 5.4 0 18.5-10.4 10.7-18.2L265.6 284l18.2-18.2c6.3-6.8-10.1-21.8-16.2-15.7L249.7 268c-18.6-18.8-18.4-19.5-21.5-19.5-5 0-18 11.7-12.4 17.3L234 284c-18.1 17.9-20.4 19.2-20.4 22.6z"/></symbol><symbol viewBox="0 0 448 512" id="icon-500px" xmlns="http://www.w3.org/2000/svg"><path d="M103.3 344.3c-6.5-14.2-6.9-18.3 7.4-23.1 25.6-8 8 9.2 43.2 49.2h.3v-93.9c1.2-50.2 44-92.2 97.7-92.2 53.9 0 97.7 43.5 97.7 96.8 0 63.4-60.8 113.2-128.5 93.3-10.5-4.2-2.1-31.7 8.5-28.6 53 0 89.4-10.1 89.4-64.4 0-61-77.1-89.6-116.9-44.6-23.5 26.4-17.6 42.1-17.6 157.6 50.7 31 118.3 22 160.4-20.1 24.8-24.8 38.5-58 38.5-93 0-35.2-13.8-68.2-38.8-93.3-24.8-24.8-57.8-38.5-93.3-38.5s-68.8 13.8-93.5 38.5c-.3.3-16 16.5-21.2 23.9l-.5.6c-3.3 4.7-6.3 9.1-20.1 6.1-6.9-1.7-14.3-5.8-14.3-11.8V20c0-5 3.9-10.5 10.5-10.5h241.3c8.3 0 8.3 11.6 8.3 15.1 0 3.9 0 15.1-8.3 15.1H130.3v132.9h.3c104.2-109.8 282.8-36 282.8 108.9 0 178.1-244.8 220.3-310.1 62.8zm63.3-260.8c-.5 4.2 4.6 24.5 14.6 20.6C306 56.6 384 144.5 390.6 144.5c4.8 0 22.8-15.3 14.3-22.8-93.2-89-234.5-57-238.3-38.2zM393 414.7C283 524.6 94 475.5 61 310.5c0-12.2-30.4-7.4-28.9 3.3 24 173.4 246 256.9 381.6 121.3 6.9-7.8-12.6-28.4-20.7-20.4zM213.6 306.6c0 4 4.3 7.3 5.5 8.5 3 3 6.1 4.4 8.5 4.4 3.8 0 2.6.2 22.3-19.5 19.6 19.3 19.1 19.5 22.3 19.5 5.4 0 18.5-10.4 10.7-18.2L265.6 284l18.2-18.2c6.3-6.8-10.1-21.8-16.2-15.7L249.7 268c-18.6-18.8-18.4-19.5-21.5-19.5-5 0-18 11.7-12.4 17.3L234 284c-18.1 17.9-20.4 19.2-20.4 22.6z"/></symbol><symbol viewBox="0 0 448 512" id="icon-accessible-icon" xmlns="http://www.w3.org/2000/svg"><path d="M423.9 255.8L411 413.1c-3.3 40.7-63.9 35.1-60.6-4.9l10-122.5-41.1 2.3c10.1 20.7 15.8 43.9 15.8 68.5 0 41.2-16.1 78.7-42.3 106.5l-39.3-39.3c57.9-63.7 13.1-167.2-74-167.2-25.9 0-49.5 9.9-67.2 26L73 243.2c22-20.7 50.1-35.1 81.4-40.2l75.3-85.7-42.6-24.8-51.6 46c-30 26.8-70.6-18.5-40.5-45.4l68-60.7c9.8-8.8 24.1-10.2 35.5-3.6 0 0 139.3 80.9 139.5 81.1 16.2 10.1 20.7 36 6.1 52.6L285.7 229l106.1-5.9c18.5-1.1 33.6 14.4 32.1 32.7zm-64.9-154c28.1 0 50.9-22.8 50.9-50.9C409.9 22.8 387.1 0 359 0c-28.1 0-50.9 22.8-50.9 50.9 0 28.1 22.8 50.9 50.9 50.9zM179.6 456.5c-80.6 0-127.4-90.6-82.7-156.1l-39.7-39.7C36.4 287 24 320.3 24 356.4c0 130.7 150.7 201.4 251.4 122.5l-39.7-39.7c-16 10.9-35.3 17.3-56.1 17.3z"/></symbol><symbol viewBox="0 0 448 512" id="icon-accessible-icon" xmlns="http://www.w3.org/2000/svg"><path d="M423.9 255.8L411 413.1c-3.3 40.7-63.9 35.1-60.6-4.9l10-122.5-41.1 2.3c10.1 20.7 15.8 43.9 15.8 68.5 0 41.2-16.1 78.7-42.3 106.5l-39.3-39.3c57.9-63.7 13.1-167.2-74-167.2-25.9 0-49.5 9.9-67.2 26L73 243.2c22-20.7 50.1-35.1 81.4-40.2l75.3-85.7-42.6-24.8-51.6 46c-30 26.8-70.6-18.5-40.5-45.4l68-60.7c9.8-8.8 24.1-10.2 35.5-3.6 0 0 139.3 80.9 139.5 81.1 16.2 10.1 20.7 36 6.1 52.6L285.7 229l106.1-5.9c18.5-1.1 33.6 14.4 32.1 32.7zm-64.9-154c28.1 0 50.9-22.8 50.9-50.9C409.9 22.8 387.1 0 359 0c-28.1 0-50.9 22.8-50.9 50.9 0 28.1 22.8 50.9 50.9 50.9zM179.6 456.5c-80.6 0-127.4-90.6-82.7-156.1l-39.7-39.7C36.4 287 24 320.3 24 356.4c0 130.7 150.7 201.4 251.4 122.5l-39.7-39.7c-16 10.9-35.3 17.3-56.1 17.3z"/></symbol><symbol viewBox="0 0 640 512" id="icon-accusoft" xmlns="http://www.w3.org/2000/svg"><path d="M322.1 252v-1l-51.2-65.8s-12 1.6-25 15.1c-9 9.3-242.1 239.1-243.4 240.9-7 10 1.6 6.8 15.7 1.7.8 0 114.5-36.6 114.5-36.6.5-.6-.1-.1.6-.6-.4-5.1-.8-26.2-1-27.7-.6-5.2 2.2-6.9 7-8.9l92.6-33.8c.6-.8 88.5-81.7 90.2-83.3zm160.1 120.1c13.3 16.1 20.7 13.3 30.8 9.3 3.2-1.2 115.4-47.6 117.8-48.9 8-4.3-1.7-16.7-7.2-23.4-2.1-2.5-205.1-245.6-207.2-248.3-9.7-12.2-14.3-12.9-38.4-12.8-10.2 0-106.8.5-116.5.6-19.2.1-32.9-.3-19.2 16.9C250 75 476.5 365.2 482.2 372.1zm152.7 1.6c-2.3-.3-24.6-4.7-38-7.2 0 0-115 50.4-117.5 51.6-16 7.3-26.9-3.2-36.7-14.6l-57.1-74c-5.4-.9-60.4-9.6-65.3-9.3-3.1.2-9.6.8-14.4 2.9-4.9 2.1-145.2 52.8-150.2 54.7-5.1 2-11.4 3.6-11.1 7.6.2 2.5 2 2.6 4.6 3.5 2.7.8 300.9 67.6 308 69.1 15.6 3.3 38.5 10.5 53.6 1.7 2.1-1.2 123.8-76.4 125.8-77.8 5.4-4 4.3-6.8-1.7-8.2z"/></symbol><symbol viewBox="0 0 640 512" id="icon-accusoft" xmlns="http://www.w3.org/2000/svg"><path d="M322.1 252v-1l-51.2-65.8s-12 1.6-25 15.1c-9 9.3-242.1 239.1-243.4 240.9-7 10 1.6 6.8 15.7 1.7.8 0 114.5-36.6 114.5-36.6.5-.6-.1-.1.6-.6-.4-5.1-.8-26.2-1-27.7-.6-5.2 2.2-6.9 7-8.9l92.6-33.8c.6-.8 88.5-81.7 90.2-83.3zm160.1 120.1c13.3 16.1 20.7 13.3 30.8 9.3 3.2-1.2 115.4-47.6 117.8-48.9 8-4.3-1.7-16.7-7.2-23.4-2.1-2.5-205.1-245.6-207.2-248.3-9.7-12.2-14.3-12.9-38.4-12.8-10.2 0-106.8.5-116.5.6-19.2.1-32.9-.3-19.2 16.9C250 75 476.5 365.2 482.2 372.1zm152.7 1.6c-2.3-.3-24.6-4.7-38-7.2 0 0-115 50.4-117.5 51.6-16 7.3-26.9-3.2-36.7-14.6l-57.1-74c-5.4-.9-60.4-9.6-65.3-9.3-3.1.2-9.6.8-14.4 2.9-4.9 2.1-145.2 52.8-150.2 54.7-5.1 2-11.4 3.6-11.1 7.6.2 2.5 2 2.6 4.6 3.5 2.7.8 300.9 67.6 308 69.1 15.6 3.3 38.5 10.5 53.6 1.7 2.1-1.2 123.8-76.4 125.8-77.8 5.4-4 4.3-6.8-1.7-8.2z"/></symbol><symbol viewBox="0 0 384 512" id="icon-acquisitions-incorporated" xmlns="http://www.w3.org/2000/svg"><path d="M357.45 468.2c-1.2-7.7-1.3-7.6-9.6-7.6-99.8.2-111.8-2.4-112.7-2.6-12.3-1.7-20.6-10.5-21-23.1-.1-1.6-.2-71.6-1-129.1-.1-4.7 1.6-6.4 5.9-7.5 12.5-3 24.9-6.1 37.3-9.7 4.3-1.3 6.8-.2 8.4 3.5 4.5 10.3 8.8 20.6 13.2 30.9 1.6 3.7.1 4.4-3.4 4.4-10-.2-20-.1-30.4-.1v27h116c-1.4-9.5-2.7-18.1-4-27.5-7 0-13.8.4-20.4-.1-22.6-1.6-18.3-4.4-84-158.6-8.8-20.1-27.9-62.1-36.5-89.2-4.4-14 5.5-25.4 18.9-26.6 18.6-1.7 37.5-1.6 56.2-2 20.6-.4 41.2-.4 61.8-.5 3.1 0 4-1.4 4.3-4.3 1.2-9.8 2.7-19.5 4-29.2.8-5.3 1.6-10.7 2.4-16.1L23.75 0c-3.6 0-5.3 1.1-4.6 5.3 2.2 13.2-.8.8 6.4 45.3 63.4 0 71.8.9 101.8.5 12.3-.2 37 3.5 37.7 22.1.4 11.4-1.1 11.3-32.6 87.4-53.8 129.8-50.7 120.3-67.3 161-1.7 4.1-3.6 5.2-7.6 5.2-8.5-.2-17-.3-25.4.1-1.9.1-5.2 1.8-5.5 3.2-1.5 8.1-2.2 16.3-3.2 24.9h114.3v-27.6c-6.9 0-33.5.4-35.3-2.9 5.3-12.3 10.4-24.4 15.7-36.7 16.3 4 31.9 7.8 47.6 11.7 3.4.9 4.6 3 4.6 6.8-.1 42.9.1 85.9.2 128.8 0 10.2-5.5 19.1-14.9 23.1-6.5 2.7-3.3 3.4-121.4 2.4-5.3 0-7.1 2-7.6 6.8-1.5 12.9-2.9 25.9-5 38.8-.8 5 1.3 5.7 5.3 5.7 183.2.6-30.7 0 337.1 0-2.5-15-4.4-29.4-6.6-43.7zm-174.9-205.7c-13.3-4.2-26.6-8.2-39.9-12.5a44.53 44.53 0 01-5.8-2.9c17.2-44.3 34.2-88.1 51.3-132.1 7.5 2.4 7.9-.8 9.4 0 9.3 22.5 18.1 60.1 27 82.8 6.6 16.7 13 33.5 19.7 50.9a35.78 35.78 0 01-3.9 2.1c-13.1 3.9-26.4 7.5-39.4 11.7a27.66 27.66 0 01-18.4 0z"/></symbol><symbol viewBox="0 0 384 512" id="icon-acquisitions-incorporated" xmlns="http://www.w3.org/2000/svg"><path d="M357.45 468.2c-1.2-7.7-1.3-7.6-9.6-7.6-99.8.2-111.8-2.4-112.7-2.6-12.3-1.7-20.6-10.5-21-23.1-.1-1.6-.2-71.6-1-129.1-.1-4.7 1.6-6.4 5.9-7.5 12.5-3 24.9-6.1 37.3-9.7 4.3-1.3 6.8-.2 8.4 3.5 4.5 10.3 8.8 20.6 13.2 30.9 1.6 3.7.1 4.4-3.4 4.4-10-.2-20-.1-30.4-.1v27h116c-1.4-9.5-2.7-18.1-4-27.5-7 0-13.8.4-20.4-.1-22.6-1.6-18.3-4.4-84-158.6-8.8-20.1-27.9-62.1-36.5-89.2-4.4-14 5.5-25.4 18.9-26.6 18.6-1.7 37.5-1.6 56.2-2 20.6-.4 41.2-.4 61.8-.5 3.1 0 4-1.4 4.3-4.3 1.2-9.8 2.7-19.5 4-29.2.8-5.3 1.6-10.7 2.4-16.1L23.75 0c-3.6 0-5.3 1.1-4.6 5.3 2.2 13.2-.8.8 6.4 45.3 63.4 0 71.8.9 101.8.5 12.3-.2 37 3.5 37.7 22.1.4 11.4-1.1 11.3-32.6 87.4-53.8 129.8-50.7 120.3-67.3 161-1.7 4.1-3.6 5.2-7.6 5.2-8.5-.2-17-.3-25.4.1-1.9.1-5.2 1.8-5.5 3.2-1.5 8.1-2.2 16.3-3.2 24.9h114.3v-27.6c-6.9 0-33.5.4-35.3-2.9 5.3-12.3 10.4-24.4 15.7-36.7 16.3 4 31.9 7.8 47.6 11.7 3.4.9 4.6 3 4.6 6.8-.1 42.9.1 85.9.2 128.8 0 10.2-5.5 19.1-14.9 23.1-6.5 2.7-3.3 3.4-121.4 2.4-5.3 0-7.1 2-7.6 6.8-1.5 12.9-2.9 25.9-5 38.8-.8 5 1.3 5.7 5.3 5.7 183.2.6-30.7 0 337.1 0-2.5-15-4.4-29.4-6.6-43.7zm-174.9-205.7c-13.3-4.2-26.6-8.2-39.9-12.5a44.53 44.53 0 01-5.8-2.9c17.2-44.3 34.2-88.1 51.3-132.1 7.5 2.4 7.9-.8 9.4 0 9.3 22.5 18.1 60.1 27 82.8 6.6 16.7 13 33.5 19.7 50.9a35.78 35.78 0 01-3.9 2.1c-13.1 3.9-26.4 7.5-39.4 11.7a27.66 27.66 0 01-18.4 0z"/></symbol><symbol viewBox="0 0 496 512" id="icon-adn" xmlns="http://www.w3.org/2000/svg"><path d="M248 167.5l64.9 98.8H183.1l64.9-98.8zM496 256c0 136.9-111.1 248-248 248S0 392.9 0 256 111.1 8 248 8s248 111.1 248 248zm-99.8 82.7L248 115.5 99.8 338.7h30.4l33.6-51.7h168.6l33.6 51.7h30.2z"/></symbol><symbol viewBox="0 0 496 512" id="icon-adn" xmlns="http://www.w3.org/2000/svg"><path d="M248 167.5l64.9 98.8H183.1l64.9-98.8zM496 256c0 136.9-111.1 248-248 248S0 392.9 0 256 111.1 8 248 8s248 111.1 248 248zm-99.8 82.7L248 115.5 99.8 338.7h30.4l33.6-51.7h168.6l33.6 51.7h30.2z"/></symbol><symbol viewBox="0 0 512 512" id="icon-adobe" xmlns="http://www.w3.org/2000/svg"><path d="M315.5 64h170.9v384L315.5 64zm-119 0H25.6v384L196.5 64zM256 206.1L363.5 448h-73l-30.7-76.8h-78.7L256 206.1z"/></symbol></svg>